# xmcd
#
# Track frame offsets:
#	150
#	21491
#	48919
#
# Disc length: 847 seconds
#
# Revision: 0
# Processed by: cddbd v1.5.1PL2 Copyright (c) Steve Scherf et al.
# Submitted via: EasyCDDAExtractor 4.6.9.1
#
DISCID=1f034d03
DTITLE=Мгновение - Жестокий Мир EP
DYEAR=2006
DGENRE=Metal
TTITLE0=Жестокий Мир (Album version)
TTITLE1=Спаситель (Live version)
TTITLE2=Ночной Кошмар (Unreleased track)
EXTD=
EXTT0=
EXTT1=
EXTT2=
PLAYORDER=
